<svg id="a" xmlns="http://www.w3.org/2000/svg" viewBox="0 0 61.49 50.73"><path d="M50.88,25.34c3.47,0,6.28,2.81,6.28,6.28s-2.81,6.28-6.28,6.28" fill="#fff" stroke="#1e81ce" stroke-miterlimit="10"/><path d="M56.37,28.49h2.7c1.06,0,1.93.86,1.93,1.93v2.82c0,1.06-.86,1.93-1.93,1.93h-2.7" fill="none" stroke="#1e81ce" stroke-miterlimit="10"/><path d="M10.61,25.34c-3.47,0-6.28,2.81-6.28,6.28,0,3.47,2.81,6.28,6.28,6.28" fill="#fff" stroke="#1e81ce" stroke-miterlimit="10"/><path d="M5.12,28.49h-2.7c-1.06,0-1.93.86-1.93,1.93v2.82c0,1.06.86,1.93,1.93,1.93h2.7" fill="none" stroke="#1e81ce" stroke-miterlimit="10"/><path d="M22.44,20.49c0-4.59,3.72-8.31,8.31-8.31s8.31,3.72,8.31,8.31" fill="#fff" stroke="#1e81ce" stroke-miterlimit="10"/><rect x="9.12" y="18.83" width="43.26" height="23.61" rx="2.08" ry="2.08" fill="#9bc9ff" stroke="#1e81ce" stroke-miterlimit="10"/><rect x="13.95" y="22.52" width="33.59" height="16.23" rx="2.08" ry="2.08" fill="#fff" stroke="#1e81ce" stroke-miterlimit="10"/><path d="M27.06,29.86c0,1.77-1.43,3.19-3.19,3.19s-3.18-1.43-3.18-3.19,1.43-3.18,3.18-3.18,3.19,1.43,3.19,3.18Z" fill="#1e81ce"/><path d="M23.87,25.07c-2.63,0-4.78,2.15-4.78,4.78s2.15,4.8,4.78,4.8,4.8-2.15,4.8-4.8-2.15-4.78-4.8-4.78ZM23.87,33.85c-2.2,0-3.98-1.8-3.98-4s1.78-3.98,3.98-3.98,4,1.78,4,3.98-1.8,4-4,4Z" fill="#1e81ce"/><path d="M40.8,29.86c0,1.77-1.43,3.19-3.19,3.19s-3.18-1.43-3.18-3.19,1.43-3.18,3.18-3.18,3.19,1.43,3.19,3.18Z" fill="#1e81ce"/><path d="M37.61,25.07c-2.63,0-4.78,2.15-4.78,4.78s2.15,4.8,4.78,4.8,4.8-2.15,4.8-4.8-2.15-4.78-4.8-4.78ZM37.61,33.85c-2.2,0-3.98-1.8-3.98-4s1.78-3.98,3.98-3.98,4,1.78,4,3.98-1.8,4-4,4Z" fill="#1e81ce"/><circle cx="23.88" cy="3.12" r="2.62" fill="#fff" stroke="#1e81ce" stroke-miterlimit="10"/><circle cx="37.62" cy="3.12" r="2.62" fill="#fff" stroke="#1e81ce" stroke-miterlimit="10"/><line x1="25.57" y1="5.12" x2="30.75" y2="12.18" fill="none" stroke="#1e81ce" stroke-miterlimit="10"/><line x1="35.93" y1="5.12" x2="30.75" y2="12.18" fill="none" stroke="#1e81ce" stroke-miterlimit="10"/><line x1="20.57" y1="50.23" x2="40.92" y2="50.23" fill="none" stroke="#1e81ce" stroke-linecap="round" stroke-miterlimit="10"/><line x1="24.23" y1="42.44" x2="24.23" y2="49.54" fill="none" stroke="#1e81ce" stroke-miterlimit="10"/><line x1="37.26" y1="42.44" x2="37.26" y2="49.54" fill="none" stroke="#1e81ce" stroke-miterlimit="10"/></svg>