
<svg id="Layer_2" data-name="Layer 2" xmlns="http://www.w3.org/2000/svg" viewBox="0 0 66.35 45.4">
  <defs>
    <style>
      .cls-1 {
        fill: #9bc9ff;
      }

      .cls-1, .cls-2, .cls-3 {
        stroke: #1e81ce;
        stroke-miterlimit: 10;
      }

      .cls-2 {
        fill: #fff;
      }

      .cls-3 {
        fill: none;
      }

      .cls-4 {
        fill: #1e81ce;
      }
    </style>
  </defs>
  <g id="Layer_1-2" data-name="Layer 1">
    <g>
      <g>
        <path class="cls-3" d="M9.01,6.91h41.62c1.93,0,3.49,1.57,3.49,3.49v28.91H5.52V10.4c0-1.93,1.57-3.49,3.49-3.49Z"/>
        <path class="cls-1" d="M.8,39.31h58.07c.17,0,.3.14.3.3v1.26c0,2.22-1.8,4.02-4.02,4.02H4.52c-2.22,0-4.02-1.8-4.02-4.02v-1.26c0-.17.14-.3.3-.3Z"/>
        <line class="cls-3" x1="5.23" y1="36.04" x2="53.84" y2="36.04"/>
      </g>
      <g>
        <g>
          <g>
            <rect class="cls-1" x="36.63" y=".5" width="29.22" height="6.32" rx="2" ry="2"/>
            <rect class="cls-2" x="38.54" y="2.29" width="2.73" height="2.73"/>
            <rect class="cls-2" x="43.45" y="2.29" width="2.73" height="2.73"/>
          </g>
          <rect class="cls-4" x="51.99" y="3.1" width="11.29" height="1.12"/>
        </g>
        <g>
          <g>
            <rect class="cls-1" x="36.63" y="6.82" width="29.22" height="6.32" rx="2" ry="2"/>
            <rect class="cls-2" x="38.54" y="8.61" width="2.73" height="2.73"/>
            <rect class="cls-2" x="43.45" y="8.61" width="2.73" height="2.73"/>
          </g>
          <rect class="cls-4" x="51.99" y="9.42" width="11.29" height="1.12"/>
        </g>
        <g>
          <g>
            <rect class="cls-1" x="36.63" y="13.13" width="29.22" height="6.32" rx="2" ry="2"/>
            <rect class="cls-2" x="38.54" y="14.92" width="2.73" height="2.73"/>
            <rect class="cls-2" x="43.45" y="14.92" width="2.73" height="2.73"/>
          </g>
          <rect class="cls-4" x="51.99" y="15.73" width="11.29" height="1.12"/>
        </g>
      </g>
      <path class="cls-1" d="M29.76,22.71c0-1.39,1.12-2.51,2.5-2.51h.08c-.23-.88-.58-1.72-1.03-2.48l-.05.05c-.98.98-2.56.98-3.54,0-.97-.98-.97-2.56,0-3.54l.05-.05c-.77-.45-1.6-.8-2.48-1.03v.08c0,1.38-1.12,2.5-2.5,2.5s-2.5-1.12-2.5-2.5v-.08c-.88.23-1.71.58-2.48,1.03l.05.05c.98.98.98,2.56,0,3.54-.98.98-2.56.98-3.54,0l-.05-.05c-.45.77-.8,1.6-1.03,2.48h.07c1.39,0,2.5,1.12,2.5,2.51s-1.12,2.5-2.5,2.5h-.07c.23.88.58,1.71,1.03,2.48l.05-.05c.98-.98,2.56-.98,3.54,0,.98.98.98,2.56,0,3.54l-.05.05c.77.45,1.6.8,2.48,1.03v-.08c0-1.38,1.12-2.5,2.5-2.5s2.5,1.12,2.5,2.5v.08c.88-.23,1.72-.58,2.48-1.03l-.05-.05c-.97-.98-.97-2.56,0-3.54.98-.98,2.56-.98,3.54,0l.05.05c.45-.77.8-1.6,1.03-2.48h-.08c-1.38,0-2.5-1.12-2.5-2.5ZM22.79,27.72c-2.77,0-5.01-2.24-5.01-5.01s2.24-5.01,5.01-5.01,5.01,2.24,5.01,5.01-2.24,5.01-5.01,5.01Z"/>
      <g>
        <polyline class="cls-3" points="40.68 22.71 40.68 30.93 35.45 30.93"/>
        <polyline class="cls-3" points="37.79 25.16 40.68 22.27 43.68 25.26"/>
      </g>
    </g>
  </g>
</svg>