
<svg id="Layer_2" data-name="Layer 2" xmlns="http://www.w3.org/2000/svg" viewBox="0 0 59.68 44.59">
  <defs>
    <style>
      .cls-1, .cls-2, .cls-3 {
        stroke: #1e81ce;
        stroke-miterlimit: 10;
      }

      .cls-1, .cls-4 {
        fill: #9bc9ff;
      }

      .cls-2 {
        fill: #fff;
      }

      .cls-3 {
        fill: none;
      }

      .cls-5 {
        fill: #1e81ce;
      }
    </style>
  </defs>
  <g id="Layer_1-2" data-name="Layer 1">
    <g>
      <g>
        <path class="cls-3" d="M9.01,6.1h41.62c1.93,0,3.49,1.57,3.49,3.49v28.91H5.52V9.6c0-1.93,1.57-3.49,3.49-3.49Z"/>
        <path class="cls-1" d="M.8,38.5h58.07c.17,0,.3.14.3.3v1.26c0,2.22-1.8,4.02-4.02,4.02H4.52c-2.22,0-4.02-1.8-4.02-4.02v-1.26c0-.17.14-.3.3-.3Z"/>
        <line class="cls-3" x1="5.23" y1="35.23" x2="53.84" y2="35.23"/>
      </g>
      <path class="cls-1" d="M41.83,23.01h-15.13l-2.81,3.68-1.87-3.68h-4.17c-1.93,0-3.49-1.56-3.49-3.49V3.99c0-1.93,1.56-3.49,3.49-3.49h23.98c1.93,0,3.49,1.56,3.49,3.49v15.53c0,1.93-1.56,3.49-3.49,3.49Z"/>
      <path class="cls-2" d="M25.83,15.31v-7.98c0-.69.74-1.12,1.34-.78l6.5,3.72c.58.33.61,1.16.05,1.52l-6.5,4.27c-.59.39-1.38-.04-1.38-.75Z"/>
      <rect class="cls-5" x="9.24" y="29.63" width="1.02" height="2.2"/>
      <rect class="cls-5" x="11.48" y="29.63" width="1.02" height="2.2"/>
      <rect class="cls-4" x="14.99" y="29.63" width="35.85" height="2.2"/>
    </g>
  </g>
</svg>