
<svg id="Layer_1" data-name="Layer 1" xmlns="http://www.w3.org/2000/svg" viewBox="0 0 68.18 47.19">
  <defs>
    <style>
      .cls-1, .cls-2 {
        stroke: #1e81ce;
        stroke-miterlimit: 10;
      }

      .cls-1, .cls-3 {
        fill: #9bc9ff;
      }

      .cls-2 {
        fill: none;
      }

      .cls-4 {
        fill: #1e81ce;
      }
    </style>
  </defs>
  <path class="cls-2" d="M61.9,18.59v21.71H6.25V7.2c0-2.21,1.79-4,4-4h36.53"/>
  <path class="cls-1" d="M.8,40.3h66.57c.17,0,.3.14.3.3v2.07c0,2.22-1.8,4.02-4.02,4.02H4.52c-2.22,0-4.02-1.8-4.02-4.02v-2.07c0-.17.14-.3.3-.3Z"/>
  <line class="cls-2" x1="5.91" y1="36.55" x2="61.56" y2="36.55"/>
  <path class="cls-4" d="M21.95,20.55c-1.04-.84-2.41-1.34-4.13-1.5l-1.59-.14c-1.03-.1-1.79-.4-2.29-.9-.5-.51-.75-1.1-.75-1.79,0-.53.15-1.01.45-1.44.3-.43.72-.77,1.28-1.02.55-.25,1.22-.37,2.01-.37.88,0,1.59.17,2.13.5.54.34.93.77,1.19,1.29.26.52.38,1.07.38,1.65h2.17c0-1.14-.24-2.11-.72-2.92-.48-.81-1.16-1.43-2.03-1.85-.61-.3-1.31-.48-2.08-.57v-2.4h-2.07v2.39c-.78.08-1.48.25-2.1.52-.89.39-1.58.93-2.07,1.65-.49.71-.73,1.58-.73,2.59,0,1.46.46,2.58,1.37,3.37.91.79,2.14,1.25,3.68,1.4l1.59.14c1.19.11,2.09.43,2.72.94.63.51.94,1.16.94,1.93s-.35,1.48-1.05,2.09c-.7.61-1.77.91-3.21.91-1.09,0-1.95-.19-2.57-.56-.63-.38-1.07-.85-1.34-1.41-.26-.56-.4-1.12-.4-1.66h-2.17c0,1.14.25,2.13.76,2.97.5.84,1.24,1.49,2.2,1.95.71.34,1.54.55,2.48.64v3.15h2.07v-3.15c.9-.08,1.7-.27,2.41-.58.96-.42,1.71-1,2.24-1.74.53-.75.79-1.62.79-2.61,0-1.44-.52-2.59-1.55-3.43Z"/>
  <rect class="cls-3" x="25.61" y="9.33" width="19.26" height=".9"/>
  <rect class="cls-4" x="25.61" y="14.72" width="19.26" height=".9"/>
  <rect class="cls-4" x="25.61" y="25.5" width="28.3" height=".9"/>
  <rect class="cls-4" x="25.61" y="20.11" width="28.3" height=".9"/>
  <rect class="cls-4" x="25.61" y="30.89" width="28.3" height=".9"/>
  <path class="cls-2" d="M64.61,5.61c.42,1,.65,2.09.65,3.24,0,4.61-3.74,8.35-8.35,8.35s-8.35-3.74-8.35-8.35S52.3.5,56.91.5c1.67,0,3.23.49,4.54,1.34"/>
  <polyline class="cls-2" points="64.57 2.19 56.35 10.9 52.96 7.38"/>
</svg>