
<svg id="Layer_2" data-name="Layer 2" xmlns="http://www.w3.org/2000/svg" viewBox="0 0 59.68 38.99">
  <defs>
    <style>
      .cls-1 {
        fill: #9bc9ff;
      }

      .cls-1, .cls-2, .cls-3 {
        stroke: #1e81ce;
        stroke-miterlimit: 10;
      }

      .cls-2 {
        fill: #fff;
      }

      .cls-3 {
        fill: none;
      }
    </style>
  </defs>
  <g id="Layer_1-2" data-name="Layer 1">
    <g>
      <g>
        <path class="cls-1" d="M40.32,5.14h1.96c.68,0,1.23.55,1.23,1.23v20.26h-4.42V6.37c0-.68.55-1.23,1.23-1.23Z"/>
        <path class="cls-2" d="M35.87,21.35h1.96c.68,0,1.23.55,1.23,1.23v4.05h-4.42v-4.05c0-.68.55-1.23,1.23-1.23Z"/>
        <path class="cls-1" d="M31.42,17.78h1.96c.68,0,1.23.55,1.23,1.23v7.62h-4.42v-7.62c0-.68.55-1.23,1.23-1.23Z"/>
        <path class="cls-2" d="M26.97,13.47h1.96c.68,0,1.23.55,1.23,1.23v11.94h-4.42v-11.94c0-.68.55-1.23,1.23-1.23Z"/>
        <path class="cls-1" d="M22.52,22.04h1.96c.68,0,1.23.55,1.23,1.23v3.37h-4.42v-3.37c0-.68.55-1.23,1.23-1.23Z"/>
        <path class="cls-2" d="M18.07,18.31h1.96c.68,0,1.23.55,1.23,1.23v7.1h-4.42v-7.1c0-.68.55-1.23,1.23-1.23Z"/>
      </g>
      <g>
        <circle class="cls-2" cx="13.25" cy="6.4" r="1.31"/>
        <circle class="cls-2" cx="16.78" cy="9.93" r="1.31"/>
        <circle class="cls-2" cx="21.52" cy="5.19" r="1.31"/>
        <circle class="cls-2" cx="25.71" cy="9.38" r="1.31"/>
        <line class="cls-1" x1="14.34" y1="7.13" x2="15.92" y2="8.95"/>
        <line class="cls-1" x1="17.79" y1="9.11" x2="20.62" y2="6.14"/>
        <line class="cls-1" x1="22.57" y1="5.96" x2="25" y2="8.62"/>
      </g>
      <g>
        <path class="cls-3" d="M9.01.5h41.62c1.93,0,3.49,1.57,3.49,3.49v28.91H5.52V3.99c0-1.93,1.57-3.49,3.49-3.49Z"/>
        <path class="cls-1" d="M.8,32.9h58.07c.17,0,.3.14.3.3v1.26c0,2.22-1.8,4.02-4.02,4.02H4.52c-2.22,0-4.02-1.8-4.02-4.02v-1.26c0-.17.14-.3.3-.3Z"/>
        <line class="cls-3" x1="5.23" y1="29.63" x2="53.84" y2="29.63"/>
      </g>
    </g>
  </g>
</svg>