
<svg id="Layer_2" data-name="Layer 2" xmlns="http://www.w3.org/2000/svg" viewBox="0 0 64.21 59.1">
  <defs>
    <style>
      .cls-1 {
        fill: #9bc9ff;
      }

      .cls-1, .cls-2, .cls-3 {
        stroke: #1e81ce;
        stroke-miterlimit: 10;
      }

      .cls-2 {
        fill: #fff;
      }

      .cls-3 {
        fill: none;
      }
    </style>
  </defs>
  <g id="Layer_1-2" data-name="Layer 1">
    <g>
      <path class="cls-1" d="M60.07,35.31c0-1.88,1.52-3.39,3.39-3.39h.11c-.31-1.19-.79-2.32-1.4-3.36l-.07.07c-1.32,1.32-3.47,1.32-4.79,0-1.32-1.32-1.32-3.47,0-4.79l.07-.07c-1.04-.61-2.17-1.08-3.36-1.39v.11c0,1.87-1.52,3.39-3.39,3.39s-3.39-1.52-3.39-3.39v-.11c-1.19.31-2.32.79-3.35,1.4l.07.07c1.32,1.32,1.32,3.47,0,4.79-1.32,1.32-3.47,1.32-4.79,0l-.07-.07c-.61,1.04-1.08,2.17-1.39,3.36h.1c1.88,0,3.39,1.52,3.39,3.39s-1.51,3.39-3.39,3.39h-.1c.31,1.19.79,2.32,1.4,3.35l.07-.07c1.32-1.32,3.47-1.32,4.79,0,1.32,1.32,1.32,3.47,0,4.79l-.07.07c1.04.61,2.16,1.08,3.35,1.4v-.11c0-1.87,1.52-3.39,3.39-3.39s3.39,1.52,3.39,3.39v.11c1.19-.31,2.32-.78,3.36-1.39l-.07-.07c-1.32-1.32-1.32-3.47,0-4.79,1.32-1.32,3.47-1.32,4.79,0l.07.07c.61-1.04,1.08-2.16,1.4-3.36h-.11c-1.87,0-3.39-1.52-3.39-3.39ZM50.64,42.08c-3.75,0-6.78-3.03-6.78-6.78s3.03-6.77,6.78-6.77,6.77,3.03,6.77,6.77-3.03,6.78-6.77,6.78Z"/>
      <path class="cls-2" d="M50.94,13.86v38.42c0,3.49-2.83,6.33-6.33,6.33h-21.09c-3.49,0-6.33-2.83-6.33-6.33v-8.19"/>
      <path class="cls-2" d="M17.2,13.33v-6.51c0-3.49,2.83-6.33,6.33-6.33h21.09c3.49,0,6.33,2.83,6.33,6.33v1.1"/>
      <line class="cls-3" x1="30.27" y1="3.57" x2="39.24" y2="3.57"/>
      <g>
        <path class="cls-2" d="M25.97,28.01c0,3.26-1.22,6.23-3.24,8.48-2.33,2.61-5.72,4.25-9.5,4.25s-7.17-1.65-9.49-4.25c-2.02-2.25-3.24-5.22-3.24-8.48,0-7.03,5.7-12.74,12.73-12.74s12.74,5.71,12.74,12.74Z"/>
        <path class="cls-1" d="M18.23,24.92c0,1.63-.72,3.09-1.83,4-1.83,2.03-3.66,2.03-5.49,0-1.11-.91-1.82-2.36-1.82-4,0-2.76,2.05-5,4.57-5s4.57,2.24,4.57,5Z"/>
        <path class="cls-1" d="M22.73,36.5c-2.33,2.61-5.72,4.25-9.5,4.25s-7.17-1.65-9.49-4.25c.28-2.7,2.4-4.8,4.96-4.8h2.19c.71.63,1.58,1.01,2.53,1.01s1.83-.37,2.53-1.01h1.82c2.56,0,4.68,2.1,4.96,4.8Z"/>
      </g>
      <rect class="cls-2" x="44.88" y="9.39" width="12.18" height="3.08" rx="1.54" ry="1.54"/>
      <line class="cls-3" x1="23.76" y1="42.76" x2="44.24" y2="42.76"/>
      <line class="cls-3" x1="23.76" y1="47.3" x2="36.4" y2="47.3"/>
      <line class="cls-3" x1="23.76" y1="52.71" x2="44.24" y2="52.71"/>
    </g>
  </g>
</svg>