<svg id="Layer_2" data-name="Layer 2" xmlns="http://www.w3.org/2000/svg" viewBox="0 0 62.13 55.24">
  <defs>
    <style>
      .cls-1, .cls-2, .cls-3, .cls-4 {
        stroke: #1e81ce;
        stroke-miterlimit: 10;
      }

      .cls-1, .cls-5 {
        fill: #9bc9ff;
      }

      .cls-2 {
        stroke-linecap: round;
      }

      .cls-2, .cls-4 {
        fill: none;
      }

      .cls-3 {
        fill: #fff;
      }
    </style>
  </defs>
  <g id="Layer_1-2" data-name="Layer 1">
    <g>
      <path class="cls-3" d="M39.27,27.65l-21.18-.31h-.92c-3.82,0-6.96-3.13-6.96-6.96,0-3.29,2.37-6.12,5.43-6.81v-.15c0-3.82,3.14-6.96,6.96-6.96.84,0,1.61.15,2.37.38,1.07-3.67,4.51-6.35,8.56-6.35,4.89,0,8.95,3.75,8.95,8.72,4.89,0,8.95,4.21,8.95,9.1s-4.13,9.33-9.02,9.33h-3.13Z"/>
      <path class="cls-5" d="M36.67,24.48l-14.66-.21h-.64c-2.65,0-4.82-2.17-4.82-4.82,0-2.28,1.64-4.23,3.76-4.71v-.11c0-2.65,2.17-4.82,4.82-4.82.58,0,1.11.11,1.64.27.74-2.54,3.12-4.39,5.93-4.39,3.39,0,6.19,2.59,6.19,6.03,3.39,0,6.19,2.91,6.19,6.3s-2.86,6.46-6.25,6.46h-2.17Z"/>
      <polyline class="cls-3" points="6.49 42.41 6.49 35.5 55.67 35.5 55.67 42.41"/>
      <line class="cls-4" x1="31.08" y1="26.93" x2="31.08" y2="42.41"/>
      <line class="cls-4" x1=".09" y1="42.41" x2="13" y2="42.41"/>
      <line class="cls-4" x1="24.37" y1="42.41" x2="37.28" y2="42.41"/>
      <line class="cls-4" x1="49.22" y1="42.41" x2="62.13" y2="42.41"/>
      <g>
        <rect class="cls-1" x=".5" y="44.42" width="11.86" height="7.86" rx=".7" ry=".7"/>
        <rect class="cls-1" x="5.41" y="52.27" width="2.04" height="2.47"/>
        <line class="cls-2" x1="3.53" y1="54.74" x2="9.32" y2="54.74"/>
        <line class="cls-2" x1="2.31" y1="50.36" x2="10.55" y2="50.36"/>
      </g>
      <g>
        <rect class="cls-1" x="24.9" y="44.42" width="11.86" height="7.86" rx=".7" ry=".7"/>
        <rect class="cls-1" x="29.81" y="52.27" width="2.04" height="2.47"/>
        <line class="cls-2" x1="27.93" y1="54.74" x2="33.72" y2="54.74"/>
        <line class="cls-2" x1="26.7" y1="50.36" x2="34.95" y2="50.36"/>
      </g>
      <g>
        <rect class="cls-1" x="49.75" y="44.42" width="11.86" height="7.86" rx=".7" ry=".7"/>
        <rect class="cls-1" x="54.66" y="52.27" width="2.04" height="2.47"/>
        <line class="cls-2" x1="52.78" y1="54.74" x2="58.57" y2="54.74"/>
        <line class="cls-2" x1="51.55" y1="50.36" x2="59.8" y2="50.36"/>
      </g>
    </g>
  </g>
</svg>