
<svg id="Layer_2" data-name="Layer 2" xmlns="http://www.w3.org/2000/svg" viewBox="0 0 53.28 53.8">
  <defs>
    <style>
      .cls-1 {
        fill: #9bc9ff;
      }

      .cls-1, .cls-2 {
        stroke: #1e81ce;
        stroke-miterlimit: 10;
      }

      .cls-2 {
        fill: #fff;
      }

      .cls-3 {
        fill: #1e81ce;
      }
    </style>
  </defs>
  <g id="Layer_1-2" data-name="Layer 1">
    <g>
      <path class="cls-1" d="M32.1,45.47c0,4.32-4.3,7.83-9.61,7.83s-9.61-3.51-9.61-7.83"/>
      <path class="cls-1" d="M42.52,41.15c-9.37-4.18-2.11-31.21-18.05-33.13h-3.98c-15.93,1.92-8.68,28.95-18.05,33.13h40.07Z"/>
      <rect class="cls-2" x=".5" y="37.72" width="43.98" height="8.12" rx="4.06" ry="4.06"/>
      <g>
        <circle class="cls-2" cx="39.63" cy="22.26" r="13.14"/>
        <g>
          <rect class="cls-3" x="37.95" y="27.48" width="2.47" height="2.6"/>
          <path class="cls-3" d="M43.99,16.35c-.39-.67-.94-1.21-1.66-1.62-.72-.4-1.57-.61-2.56-.61-1.12,0-2.06.23-2.81.68-.75.45-1.32,1.04-1.69,1.77-.38.72-.56,1.5-.56,2.34h1.96c0-.58.13-1.1.38-1.54.26-.45.61-.8,1.07-1.06.46-.26,1.01-.39,1.65-.39.55,0,1.05.11,1.48.33.43.22.77.54,1.01.96.24.42.36.92.36,1.5,0,.78-.24,1.44-.73,1.98-.49.54-1.24.81-2.24.81h-1.47v3.96h2.04l.03-2.29c.78-.07,1.46-.25,2.04-.55.76-.39,1.33-.92,1.71-1.58.38-.67.57-1.4.57-2.19v-.26c0-.81-.2-1.55-.59-2.22Z"/>
        </g>
      </g>
      <rect class="cls-2" x="19.33" y=".5" width="6.31" height="10.55" rx="3.15" ry="3.15"/>
    </g>
  </g>
</svg>