<svg id="Layer_1" data-name="Layer 1" xmlns="http://www.w3.org/2000/svg" viewBox="0 0 48.11 40.95">
  <defs>
    <style>
      .cls-1 {
        fill: #9bc9ff;
      }

      .cls-1, .cls-2, .cls-3, .cls-4 {
        stroke: #1e81ce;
        stroke-miterlimit: 10;
      }

      .cls-2 {
        stroke-linecap: round;
      }

      .cls-2, .cls-4 {
        fill: none;
      }

      .cls-3 {
        fill: #fff;
      }

      .cls-5 {
        fill: #1e81ce;
      }
    </style>
  </defs>
  <g>
    <rect class="cls-1" x="14.25" y=".5" width="19.94" height="9.75" rx="1.65" ry="1.65"/>
    <line class="cls-2" x1="20.32" y1="3.82" x2="30.74" y2="3.82"/>
    <line class="cls-2" x1="17.87" y1="7.15" x2="30.74" y2="7.15"/>
    <ellipse class="cls-5" cx="18.25" cy="3.82" rx=".56" ry=".46"/>
  </g>
  <g>
    <rect class="cls-1" x="14.25" y="15.6" width="19.94" height="9.75" rx="1.65" ry="1.65"/>
    <line class="cls-2" x1="24.25" y1="18.92" x2="30.74" y2="18.92"/>
    <line class="cls-2" x1="22.25" y1="22.21" x2="30.74" y2="22.25"/>
  </g>
  <rect class="cls-3" x="14.25" y="30.71" width="19.94" height="9.75" rx="1.65" ry="1.65"/>
  <g>
    <path class="cls-4" d="M33.87,5.77h5.15c4.75,0,8.59,3.16,8.59,7.05s-3.85,7.05-8.59,7.05h-2.36"/>
    <polygon class="cls-5" points="38.65 17.41 39.06 17.85 36.89 19.87 39.06 21.88 38.65 22.32 36.01 19.87 38.65 17.41"/>
  </g>
  <g>
    <path class="cls-4" d="M14.25,21.45h-5.15c-4.75,0-8.59,3.16-8.59,7.05s3.85,7.05,8.59,7.05h2.36"/>
    <polygon class="cls-5" points="9.46 38 9.05 37.56 11.22 35.55 9.05 33.53 9.46 33.09 12.1 35.55 9.46 38"/>
  </g>
  <g>
    <line class="cls-4" x1="1.33" y1="5.04" x2="11.33" y2="5.04"/>
    <polygon class="cls-5" points="8.32 8.76 7.7 8.09 10.98 5.04 7.7 1.98 8.32 1.31 12.32 5.04 8.32 8.76"/>
  </g>
  <polyline class="cls-4" points="28.36 33.28 22.93 37.88 20.25 35.53"/>
  <path class="cls-5" d="M20.23,20.24c-.3-.2-.69-.32-1.19-.35l-.46-.03c-.29-.02-.51-.09-.66-.21-.14-.12-.21-.26-.21-.42,0-.12.04-.24.13-.34.09-.1.21-.18.37-.24.16-.06.35-.09.58-.09.25,0,.46.04.61.12.15.08.27.18.34.3.07.12.11.25.11.39h.62c0-.27-.07-.5-.21-.69-.14-.19-.33-.34-.58-.44-.18-.07-.38-.11-.6-.14v-.57h-.59v.56c-.22.02-.43.06-.6.12-.26.09-.45.22-.59.39-.14.17-.21.37-.21.61,0,.34.13.61.39.79.26.19.62.29,1.06.33l.46.03c.34.03.6.1.78.22.18.12.27.27.27.45s-.1.35-.3.49c-.2.14-.51.22-.92.22-.31,0-.56-.04-.74-.13-.18-.09-.31-.2-.38-.33-.08-.13-.11-.26-.11-.39h-.62c0,.27.07.5.22.7.15.2.36.35.63.46.2.08.44.13.71.15v.74h.59v-.74c.26-.02.49-.06.69-.14.28-.1.49-.24.64-.41.15-.18.23-.38.23-.62,0-.34-.15-.61-.45-.81Z"/>
</svg>