
<svg id="Layer_2" data-name="Layer 2" xmlns="http://www.w3.org/2000/svg" viewBox="0 0 59.68 38.99">
  <defs>
    <style>
      .cls-1 {
        fill: #9bc9ff;
      }

      .cls-1, .cls-2, .cls-3 {
        stroke: #1e81ce;
        stroke-miterlimit: 10;
      }

      .cls-2 {
        stroke-linecap: round;
      }

      .cls-2, .cls-3 {
        fill: none;
      }

      .cls-4 {
        fill: #1e81ce;
      }
    </style>
  </defs>
  <g id="Layer_1-2" data-name="Layer 1">
    <g>
      <g>
        <path class="cls-3" d="M9.01.5h41.62c1.93,0,3.49,1.57,3.49,3.49v28.91H5.52V3.99c0-1.93,1.57-3.49,3.49-3.49Z"/>
        <path class="cls-1" d="M.8,32.9h58.07c.17,0,.3.14.3.3v1.26c0,2.22-1.8,4.02-4.02,4.02H4.52c-2.22,0-4.02-1.8-4.02-4.02v-1.26c0-.17.14-.3.3-.3Z"/>
        <line class="cls-3" x1="5.23" y1="29.63" x2="53.84" y2="29.63"/>
      </g>
      <g>
        <path class="cls-1" d="M22.79,14.17c0,1.13-.49,2.13-1.26,2.75-1.26,1.4-2.52,1.39-3.78,0-.76-.63-1.26-1.63-1.26-2.75,0-1.9,1.41-3.44,3.15-3.44s3.15,1.54,3.15,3.44Z"/>
        <path class="cls-1" d="M25.89,22.14c-1.6,1.8-3.94,2.93-6.54,2.93s-4.94-1.13-6.54-2.93c.19-1.86,1.65-3.3,3.42-3.3h1.51c.49.44,1.09.69,1.74.69s1.26-.26,1.74-.69h1.25c1.76,0,3.22,1.45,3.42,3.3Z"/>
        <path class="cls-3" d="M28.12,16.3c0,2.24-.84,4.29-2.23,5.84-1.6,1.8-3.94,2.93-6.54,2.93s-4.94-1.13-6.54-2.93c-1.39-1.55-2.23-3.6-2.23-5.84,0-4.84,3.93-8.77,8.77-8.77s8.77,3.93,8.77,8.77Z"/>
      </g>
      <g>
        <rect class="cls-1" x="31.88" y="7.52" width="15.4" height="9.18" rx="1.65" ry="1.65"/>
        <line class="cls-2" x1="36.57" y1="10.65" x2="44.62" y2="10.65"/>
        <line class="cls-2" x1="34.67" y1="13.78" x2="44.62" y2="13.78"/>
        <circle class="cls-4" cx="34.97" cy="10.65" r=".44"/>
      </g>
      <line class="cls-3" x1="31.88" y1="20.65" x2="47.27" y2="20.65"/>
      <line class="cls-3" x1="31.88" y1="24.6" x2="47.27" y2="24.6"/>
    </g>
  </g>
</svg>