

<svg id="Layer_2" data-name="Layer 2" xmlns="http://www.w3.org/2000/svg" viewBox="0 0 76.13 68.05">
  <defs>
    <style>
      .cls-1, .cls-2, .cls-3, .cls-4, .cls-5, .cls-6, .cls-7 {
        stroke: #1e81ce;
        stroke-miterlimit: 10;
      }

      .cls-1, .cls-2, .cls-8 {
        fill: #9bc9ff;
      }

      .cls-1, .cls-6 {
        stroke-width: .75px;
      }

      .cls-3 {
        stroke-width: 2px;
      }

      .cls-3, .cls-5, .cls-6, .cls-7 {
        fill: none;
      }

      .cls-4 {
        fill: #fff;
      }

      .cls-9 {
        fill: #1e81ce;
      }

      .cls-7 {
        stroke-dasharray: 1.28 1.28;
      }
    </style>
  </defs>
  <g id="Layer_1-2" data-name="Layer 1">
    <g>
      <g>
        <g>
          <polyline class="cls-5" points="4.96 52.7 4.96 47.68 40.73 47.68 40.73 52.7"/>
          <polyline class="cls-5" points="22.85 52.7 22.85 41.44 47.14 41.44 47.14 47.68 67.06 47.68"/>
        </g>
        <path class="cls-1" d="M42.34,57.65c0,.61-.27,1.16-.69,1.5-.69.76-1.38.76-2.07,0-.42-.34-.69-.89-.69-1.5,0-1.04.77-1.88,1.72-1.88s1.72.84,1.72,1.88Z"/>
        <path class="cls-1" d="M44.1,62.15c-.88.98-2.15,1.6-3.57,1.6s-2.7-.62-3.57-1.6c.11-1.02.9-1.81,1.87-1.81h.82c.27.24.6.38.95.38s.69-.14.95-.38h.68c.96,0,1.76.79,1.87,1.81Z"/>
        <path class="cls-6" d="M45.32,58.96c0,1.23-.46,2.34-1.22,3.19-.88.98-2.15,1.6-3.57,1.6s-2.7-.62-3.57-1.6c-.76-.85-1.22-1.97-1.22-3.19,0-2.65,2.14-4.79,4.79-4.79s4.79,2.15,4.79,4.79Z"/>
        <path class="cls-1" d="M24.66,57.65c0,.61-.27,1.16-.69,1.5-.69.76-1.38.76-2.07,0-.42-.34-.69-.89-.69-1.5,0-1.04.77-1.88,1.72-1.88s1.72.84,1.72,1.88Z"/>
        <path class="cls-1" d="M26.42,62.15c-.88.98-2.15,1.6-3.57,1.6s-2.7-.62-3.57-1.6c.11-1.02.9-1.81,1.87-1.81h.82c.27.24.6.38.95.38s.69-.14.95-.38h.68c.96,0,1.76.79,1.87,1.81Z"/>
        <path class="cls-6" d="M27.64,58.96c0,1.23-.46,2.34-1.22,3.19-.88.98-2.15,1.6-3.57,1.6s-2.7-.62-3.57-1.6c-.76-.85-1.22-1.97-1.22-3.19,0-2.65,2.14-4.79,4.79-4.79s4.79,2.15,4.79,4.79Z"/>
        <path class="cls-1" d="M6.98,57.65c0,.61-.27,1.16-.69,1.5-.69.76-1.38.76-2.07,0-.42-.34-.69-.89-.69-1.5,0-1.04.77-1.88,1.72-1.88s1.72.84,1.72,1.88Z"/>
        <path class="cls-1" d="M8.74,62.15c-.88.98-2.15,1.6-3.57,1.6s-2.7-.62-3.57-1.6c.11-1.02.9-1.81,1.87-1.81h.82c.27.24.6.38.95.38s.69-.14.95-.38h.68c.96,0,1.76.79,1.87,1.81Z"/>
        <path class="cls-6" d="M9.96,58.96c0,1.23-.46,2.34-1.22,3.19-.88.98-2.15,1.6-3.57,1.6s-2.7-.62-3.57-1.6c-.76-.85-1.22-1.97-1.22-3.19,0-2.65,2.14-4.79,4.79-4.79s4.79,2.15,4.79,4.79Z"/>
      </g>
      <circle class="cls-8" cx="33.92" cy="15.78" r="7.6"/>
      <g>
        <path class="cls-5" d="M43.66,27.81c-2.65,2.17-6.04,3.47-9.73,3.47-8.5,0-15.39-6.89-15.39-15.39S25.42.5,33.92.5s15.39,6.89,15.39,15.39c0,2.12-.43,4.14-1.2,5.98"/>
        <polygon class="cls-9" points="45.31 17.32 46.23 16.93 48.15 21.47 52.54 19.22 53 20.11 47.65 22.85 45.31 17.32"/>
      </g>
      <polyline class="cls-3" points="26.46 21.17 33.92 15.89 33.92 5.29"/>
      <g>
        <path class="cls-2" d="M63.85,67.55c6.51,0,11.79-2.59,11.79-5.79v-17.84h-23.54s-.03,17.84-.03,17.84c0,3.2,5.28,5.79,11.79,5.79"/>
        <ellipse class="cls-4" cx="63.86" cy="43.94" rx="11.77" ry="6.08"/>
        <g>
          <path class="cls-5" d="M63.85,58.74c-6.51,0-11.79-2.59-11.79-5.79"/>
          <path class="cls-5" d="M75.63,52.95c0,3.2-5.28,5.79-11.79,5.79"/>
        </g>
      </g>
      <g>
        <line class="cls-5" x1="33.88" y1="31.17" x2="33.87" y2="31.92"/>
        <line class="cls-7" x1="33.86" y1="33.2" x2="33.81" y2="40.25"/>
        <line class="cls-5" x1="33.81" y1="40.89" x2="33.8" y2="41.64"/>
      </g>
    </g>
  </g>
</svg>