
<svg id="Layer_2" data-name="Layer 2" xmlns="http://www.w3.org/2000/svg" viewBox="0 0 59.68 47.57">
  <defs>
    <style>
      .cls-1 {
        fill: #9bc9ff;
      }

      .cls-1, .cls-2, .cls-3, .cls-4 {
        stroke: #1e81ce;
        stroke-miterlimit: 10;
      }

      .cls-2 {
        fill: #fff;
      }

      .cls-3 {
        fill: #f7f7f7;
      }

      .cls-4 {
        fill: none;
      }

      .cls-5 {
        fill: #1e81ce;
      }
    </style>
  </defs>
  <g id="Layer_1-2" data-name="Layer 1">
    <g>
      <g>
        <path class="cls-4" d="M9.01,9.09h41.62c1.93,0,3.49,1.57,3.49,3.49v28.91H5.52V12.58c0-1.93,1.57-3.49,3.49-3.49Z"/>
        <path class="cls-1" d="M.8,41.49h58.07c.17,0,.3.14.3.3v1.26c0,2.22-1.8,4.02-4.02,4.02H4.52c-2.22,0-4.02-1.8-4.02-4.02v-1.26c0-.17.14-.3.3-.3Z"/>
        <line class="cls-4" x1="5.23" y1="38.21" x2="53.84" y2="38.21"/>
      </g>
      <g>
        <path class="cls-3" d="M55.7,31.05c-.35,1.88-1.99,3.3-3.96,3.3h-10.37c-1.96,0-3.62-1.42-3.96-3.3h18.29Z"/>
        <path class="cls-4" d="M55.75,4.31h-18.4c.11-2.13,1.88-3.81,4.01-3.81h10.37c2.15,0,3.9,1.68,4.01,3.81Z"/>
        <path class="cls-1" d="M55.76,4.52v25.8c0,.25-.03.49-.06.73h-18.29c-.03-.23-.06-.48-.06-.73V4.52c0-.08,0-.15,0-.22h18.4c0,.07,0,.14,0,.22Z"/>
        <path class="cls-2" d="M50.91,17.68c0-.87.7-1.57,1.56-1.57h.05c-.14-.55-.36-1.07-.64-1.55l-.03.03c-.61.61-1.6.61-2.21,0-.61-.61-.61-1.6,0-2.21l.03-.03c-.48-.28-1-.5-1.55-.64v.05c0,.86-.7,1.56-1.56,1.56s-1.56-.7-1.56-1.56v-.05c-.55.14-1.07.36-1.55.64l.03.03c.61.61.61,1.6,0,2.21-.61.61-1.6.61-2.21,0l-.03-.03c-.28.48-.5,1-.64,1.55h.05c.87,0,1.56.7,1.56,1.57s-.7,1.56-1.56,1.56h-.05c.14.55.36,1.07.64,1.55l.03-.03c.61-.61,1.6-.61,2.21,0,.61.61.61,1.6,0,2.21l-.03.03c.48.28,1,.5,1.55.64v-.05c0-.86.7-1.56,1.56-1.56s1.56.7,1.56,1.56v.05c.55-.14,1.07-.36,1.55-.64l-.03-.03c-.61-.61-.61-1.6,0-2.21.61-.61,1.6-.61,2.21,0l.03.03c.28-.48.5-1,.64-1.55h-.05c-.86,0-1.56-.7-1.56-1.56ZM46.56,20.81c-1.73,0-3.13-1.4-3.13-3.13s1.4-3.13,3.13-3.13,3.13,1.4,3.13,3.13-1.4,3.13-3.13,3.13Z"/>
      </g>
      <g>
        <line class="cls-4" x1="13.71" y1="31.6" x2="26.33" y2="18.97"/>
        <polygon class="cls-5" points="18.94 32.15 18.91 31.15 13.98 31.33 14.16 26.4 13.16 26.36 12.94 32.37 18.94 32.15"/>
        <polygon class="cls-5" points="26.88 24.21 25.88 24.17 26.06 19.24 21.14 19.42 21.1 18.42 27.1 18.21 26.88 24.21"/>
      </g>
    </g>
  </g>
</svg>