<svg id="Layer_2" data-name="Layer 2" xmlns="http://www.w3.org/2000/svg" viewBox="0 0 75.13 57.13">
  <defs>
    <style>
      .cls-1 {
        fill: #9bc9ff;
      }

      .cls-1, .cls-2, .cls-3 {
        stroke: #1e81ce;
        stroke-miterlimit: 10;
      }

      .cls-2 {
        fill: #fff;
      }

      .cls-3 {
        fill: none;
      }

      .cls-4 {
        fill: #1e81ce;
      }
    </style>
  </defs>
  <g id="Layer_1-2" data-name="Layer 1">
    <g>
      <line class="cls-3" x1="8.47" y1="10.51" x2="8.47" y2="55.33"/>
      <polyline class="cls-3" points="54.41 47.71 55.33 47.71 48.81 47.71 40.66 47.71 34.14 47.71 25.99 47.71 19.48 47.71 8.47 47.71 0 47.71"/>
      <rect class="cls-2" x="19.48" y="29.22" width="6.51" height="18.48"/>
      <rect class="cls-1" x="34.14" y="23.72" width="6.51" height="23.99"/>
      <path class="cls-2" d="M55.33,10.51v23.95c-2.65,1.2-4.48,3.74-4.48,6.69s1.75,5.39,4.31,6.62h-6.44V10.51h6.61Z"/>
      <g>
        <polyline class="cls-3" points="16.69 21.02 32.7 7.54 40.38 10.75 50.88 .75"/>
        <polygon class="cls-4" points="51.31 5.99 50.31 5.93 50.61 1.01 45.68 1.07 45.66 .07 51.67 0 51.31 5.99"/>
      </g>
      <path class="cls-1" d="M70.4,41.4c0-2.19,1.77-3.95,3.95-3.95h.12c-.37-1.39-.92-2.71-1.63-3.92l-.08.09c-1.55,1.54-4.04,1.54-5.59,0-1.54-1.55-1.54-4.05,0-5.59l.08-.08c-1.21-.71-2.53-1.25-3.92-1.62v.12c0,2.18-1.77,3.95-3.95,3.95-1.46,0-2.73-.79-3.42-1.97-.34-.58-.53-1.25-.53-1.98v-.12c-1.39.36-2.7.92-3.91,1.62l.08.08c1.54,1.55,1.54,4.05,0,5.59-.64.63-1.43,1-2.25,1.12-1.18.16-2.43-.21-3.34-1.12l-.09-.09c-.7,1.22-1.25,2.53-1.62,3.92h.12c2.19,0,3.95,1.77,3.95,3.95s-1.76,3.95-3.95,3.95h-.12c.36,1.39.92,2.7,1.62,3.92l.08-.08c.91-.92,2.15-1.28,3.34-1.12.42.05.82.18,1.2.37.38.18.73.43,1.05.75,1.54,1.54,1.54,4.04,0,5.59l-.08.08c1.21.72,2.52,1.26,3.91,1.63v-.12c0-2.19,1.77-3.95,3.95-3.95s3.95,1.77,3.95,3.95v.12c1.38-.37,2.71-.91,3.92-1.62l-.08-.08c-1.54-1.55-1.54-4.05,0-5.59s4.04-1.55,5.59,0l.08.08c.72-1.22,1.26-2.52,1.63-3.92h-.12c-2.19,0-3.95-1.77-3.95-3.95ZM59.4,49.3c-1.29,0-2.52-.31-3.59-.86-2.56-1.31-4.31-3.97-4.31-7.05s1.83-5.85,4.48-7.12c1.04-.5,2.2-.78,3.42-.78,4.36,0,7.9,3.54,7.9,7.9s-3.54,7.91-7.9,7.91Z"/>
    </g>
  </g>
</svg>