
<svg id="Layer_2" data-name="Layer 2" xmlns="http://www.w3.org/2000/svg" viewBox="0 0 62.53 55.28">
  <defs>
    <style>
      .cls-1, .cls-2 {
        fill: #9bc9ff;
      }

      .cls-1, .cls-2, .cls-3, .cls-4 {
        stroke: #1e81ce;
        stroke-miterlimit: 10;
      }

      .cls-1, .cls-4 {
        stroke-width: .75px;
      }

      .cls-3, .cls-4 {
        fill: none;
      }
    </style>
  </defs>
  <g id="Layer_1-2" data-name="Layer 1">
    <g>
      <path class="cls-1" d="M9.46,46.53c0,.85-.37,1.6-.95,2.07-.95,1.05-1.89,1.05-2.84,0-.57-.47-.94-1.22-.94-2.07,0-1.43,1.06-2.58,2.36-2.58s2.37,1.16,2.37,2.58Z"/>
      <path class="cls-1" d="M11.87,52.71c-1.2,1.35-2.96,2.2-4.91,2.2s-3.71-.85-4.91-2.2c.15-1.4,1.24-2.48,2.57-2.48h1.13c.37.33.82.52,1.31.52s.95-.19,1.31-.52h.94c1.32,0,2.42,1.09,2.57,2.48Z"/>
      <g>
        <g>
          <polyline class="cls-3" points="6.68 39.72 6.68 32.82 55.86 32.82 55.86 39.72"/>
          <line class="cls-3" x1="31.27" y1="24.24" x2="31.27" y2="39.72"/>
        </g>
        <path class="cls-2" d="M36.13,11.47c0,1.74-.76,3.28-1.95,4.26-1.95,2.16-3.9,2.16-5.84,0-1.18-.97-1.94-2.52-1.94-4.26,0-2.94,2.18-5.32,4.86-5.32s4.87,2.38,4.87,5.32Z"/>
        <path class="cls-2" d="M41.37,23.09c-2.48,2.78-6.09,4.53-10.11,4.53s-7.63-1.75-10.11-4.53c.3-2.87,2.55-5.11,5.28-5.11h2.33c.75.67,1.68,1.07,2.69,1.07s1.95-.4,2.69-1.07h1.94c2.73,0,4.98,2.24,5.28,5.11Z"/>
        <path class="cls-3" d="M44.82,14.06c0,3.47-1.3,6.63-3.45,9.03-2.48,2.78-6.09,4.53-10.11,4.53s-7.63-1.75-10.11-4.53c-2.15-2.4-3.45-5.56-3.45-9.03,0-7.48,6.07-13.56,13.55-13.56s13.56,6.07,13.56,13.56Z"/>
        <path class="cls-1" d="M58.07,46.53c0,.85-.37,1.6-.95,2.07-.95,1.05-1.89,1.05-2.84,0-.57-.47-.94-1.22-.94-2.07,0-1.43,1.06-2.58,2.36-2.58s2.37,1.16,2.37,2.58Z"/>
        <path class="cls-1" d="M60.48,52.71c-1.2,1.35-2.96,2.2-4.91,2.2s-3.71-.85-4.91-2.2c.15-1.4,1.24-2.48,2.57-2.48h1.13c.37.33.82.52,1.31.52s.95-.19,1.31-.52h.94c1.32,0,2.42,1.09,2.57,2.48Z"/>
        <path class="cls-4" d="M62.16,48.32c0,1.69-.63,3.22-1.67,4.39-1.2,1.35-2.96,2.2-4.91,2.2s-3.71-.85-4.91-2.2c-1.04-1.17-1.67-2.7-1.67-4.39,0-3.64,2.95-6.59,6.58-6.59s6.59,2.95,6.59,6.59Z"/>
        <path class="cls-1" d="M33.76,46.53c0,.85-.37,1.6-.95,2.07-.95,1.05-1.89,1.05-2.84,0-.57-.47-.94-1.22-.94-2.07,0-1.43,1.06-2.58,2.36-2.58s2.37,1.16,2.37,2.58Z"/>
        <path class="cls-1" d="M36.18,52.71c-1.2,1.35-2.96,2.2-4.91,2.2s-3.71-.85-4.91-2.2c.15-1.4,1.24-2.48,2.57-2.48h1.13c.37.33.82.52,1.31.52s.95-.19,1.31-.52h.94c1.32,0,2.42,1.09,2.57,2.48Z"/>
        <path class="cls-4" d="M37.85,48.32c0,1.69-.63,3.22-1.67,4.39-1.2,1.35-2.96,2.2-4.91,2.2s-3.71-.85-4.91-2.2c-1.04-1.17-1.67-2.7-1.67-4.39,0-3.64,2.95-6.59,6.58-6.59s6.59,2.95,6.59,6.59Z"/>
        <path class="cls-4" d="M13.55,48.32c0,1.69-.63,3.22-1.67,4.39-1.2,1.35-2.96,2.2-4.91,2.2s-3.71-.85-4.91-2.2c-1.04-1.17-1.67-2.7-1.67-4.39,0-3.64,2.95-6.59,6.58-6.59s6.59,2.95,6.59,6.59Z"/>
      </g>
    </g>
  </g>
</svg>