
<svg id="Layer_2" data-name="Layer 2" xmlns="http://www.w3.org/2000/svg" viewBox="0 0 55.82 46.7">
  <defs>
    <style>
      .cls-1 {
        fill: #9bc9ff;
      }

      .cls-1, .cls-2, .cls-3 {
        stroke: #1e81ce;
        stroke-miterlimit: 10;
      }

      .cls-2 {
        fill: #fff;
      }

      .cls-3 {
        fill: none;
      }
    </style>
  </defs>
  <g id="Layer_1-2" data-name="Layer 1">
    <g>
      <g>
        <rect class="cls-2" x=".52" y="4.68" width="43.26" height="34.52" rx="2.95" ry="2.95"/>
        <path class="cls-1" d="M.52,14.39v-6.44c0-1.8,1.46-3.26,3.26-3.26h36.74c1.79,0,3.25,1.46,3.25,3.26v6.44"/>
        <line class="cls-1" x1="43.26" y1="14.24" y2="14.24"/>
      </g>
      <g>
        <rect class="cls-2" x="7.21" y=".5" width="3.89" height="8.37" rx="1.19" ry="1.19"/>
        <rect class="cls-2" x="15.7" y=".5" width="3.89" height="8.37" rx="1.19" ry="1.19"/>
        <rect class="cls-2" x="24.19" y=".5" width="3.89" height="8.37" rx="1.19" ry="1.19"/>
        <rect class="cls-2" x="32.68" y=".5" width="3.89" height="8.37" rx="1.19" ry="1.19"/>
      </g>
      <g>
        <rect class="cls-1" x="6.39" y="17.12" width="4.15" height="4.15" rx=".92" ry=".92"/>
        <rect class="cls-1" x="15.34" y="17.12" width="4.15" height="4.15" rx=".92" ry=".92"/>
        <rect class="cls-1" x="24.29" y="17.12" width="4.15" height="4.15" rx=".92" ry=".92"/>
        <rect class="cls-1" x="33.24" y="17.12" width="4.15" height="4.15" rx=".92" ry=".92"/>
        <rect class="cls-1" x="6.39" y="24.79" width="4.15" height="4.15" rx=".92" ry=".92"/>
        <rect class="cls-1" x="15.34" y="24.79" width="4.15" height="4.15" rx=".92" ry=".92"/>
        <rect class="cls-1" x="24.29" y="24.79" width="4.15" height="4.15" rx=".92" ry=".92"/>
        <rect class="cls-1" x="6.39" y="31.96" width="4.15" height="4.15" rx=".92" ry=".92"/>
        <rect class="cls-1" x="15.34" y="31.96" width="4.15" height="4.15" rx=".92" ry=".92"/>
        <rect class="cls-1" x="24.29" y="31.96" width="4.15" height="4.15" rx=".92" ry=".92"/>
        <rect class="cls-1" x="33.24" y="31.96" width="4.15" height="4.15" rx=".92" ry=".92"/>
      </g>
    </g>
    <circle class="cls-2" cx="43.16" cy="34.04" r="12.16"/>
    <polyline class="cls-3" points="50.14 28.82 39.77 39.81 35.41 35.28"/>
  </g>
</svg>