
<svg id="Layer_2" data-name="Layer 2" xmlns="http://www.w3.org/2000/svg" viewBox="0 0 70.62 50.1">
  <defs>
    <style>
      .cls-1, .cls-2, .cls-3 {
        stroke: #1e81ce;
        stroke-miterlimit: 10;
      }

      .cls-1, .cls-4 {
        fill: #9bc9ff;
      }

      .cls-2 {
        fill: #fff;
      }

      .cls-3 {
        fill: none;
      }

      .cls-5 {
        fill: #1e81ce;
      }
    </style>
  </defs>
  <g id="Layer_1-2" data-name="Layer 1">
    <g>
      <g>
        <g>
          <rect class="cls-1" x=".5" y="40.68" width="29.26" height="8.92" rx="2" ry="2"/>
          <rect class="cls-2" x="2.15" y="43.21" width="2.36" height="3.86"/>
          <rect class="cls-2" x="6.39" y="43.21" width="2.36" height="3.86"/>
        </g>
        <rect class="cls-5" x="14.93" y="44.35" width="12.61" height="1.58"/>
      </g>
      <g>
        <g>
          <rect class="cls-1" x="40.86" y="40.68" width="29.26" height="8.92" rx="2" ry="2"/>
          <rect class="cls-2" x="42.51" y="43.21" width="2.36" height="3.86"/>
          <rect class="cls-2" x="46.75" y="43.21" width="2.36" height="3.86"/>
        </g>
        <rect class="cls-5" x="55.29" y="44.35" width="12.61" height="1.58"/>
      </g>
      <path class="cls-2" d="M42.82,27.65l-21.18-.31h-.92c-3.82,0-6.96-3.13-6.96-6.96,0-3.29,2.37-6.12,5.43-6.81v-.15c0-3.82,3.14-6.96,6.96-6.96.84,0,1.61.15,2.37.38,1.07-3.67,4.51-6.35,8.56-6.35,4.89,0,8.95,3.75,8.95,8.72,4.89,0,8.95,4.21,8.95,9.1s-4.13,9.33-9.02,9.33h-3.13Z"/>
      <path class="cls-4" d="M41.6,26l-18.14-.25h-.79c-3.27,0-5.96-2.61-5.96-5.79,0-2.73,2.03-5.09,4.65-5.66v-.13c0-3.18,2.68-5.79,5.96-5.79.72,0,1.37.13,2.03.32.92-3.05,3.86-5.28,7.33-5.28,4.19,0,7.66,3.11,7.66,7.25,4.19,0,7.66,3.5,7.66,7.57s-3.54,7.76-7.73,7.76h-2.68Z"/>
      <g>
        <polyline class="cls-3" points="15.21 40.74 15.21 34.89 56.41 34.89 56.41 40.74"/>
        <line class="cls-3" x1="35.81" y1="34.89" x2="35.81" y2="27.65"/>
      </g>
      <g>
        <g>
          <path class="cls-3" d="M31.39,11.32c1.04-.72,2.31-1.14,3.67-1.14,3.59,0,6.49,2.91,6.49,6.49,0,1.71-.66,3.26-1.74,4.42"/>
          <polygon class="cls-5" points="33.79 12.25 33.9 11.78 31.58 11.27 32.25 9 31.79 8.87 30.98 11.63 33.79 12.25"/>
          <rect class="cls-5" x="39.57" y="19.53" width=".48" height="3.12" transform="translate(-1.79 38.37) rotate(-50.46)"/>
        </g>
        <g>
          <path class="cls-3" d="M38.21,22.36c-.93.52-2,.81-3.14.81-3.59,0-6.49-2.91-6.49-6.49,0-1.52.52-2.91,1.39-4.01"/>
          <polygon class="cls-5" points="35.9 21.23 35.76 21.69 38.01 22.4 37.15 24.6 37.59 24.77 38.65 22.09 35.9 21.23"/>
          <rect class="cls-5" x="29.73" y="11.11" width=".48" height="3.12" transform="translate(2.27 29.75) rotate(-54.58)"/>
        </g>
      </g>
    </g>
  </g>
</svg>