
<svg id="Layer_1" data-name="Layer 1" xmlns="http://www.w3.org/2000/svg" viewBox="0 0 43.56 40.67">
  <defs>
    <style>
      .cls-1 {
        fill: #9bc9ff;
      }

      .cls-1, .cls-2, .cls-3, .cls-4 {
        stroke: #1e81ce;
        stroke-miterlimit: 10;
      }

      .cls-2 {
        stroke-linecap: round;
      }

      .cls-2, .cls-4 {
        fill: none;
      }

      .cls-3 {
        fill: #fff;
      }

      .cls-5 {
        fill: #1e81ce;
      }
    </style>
  </defs>
  <path class="cls-1" d="M43.06,6.8v27.07c0,3.48-2.82,6.3-6.31,6.3H6.81c-3.49,0-6.31-2.82-6.31-6.3V6.8h42.56Z"/>
  <path class="cls-4" d="M36.75.5H6.81C3.32.5.5,3.32.5,6.8h42.56c0-3.48-2.82-6.3-6.31-6.3ZM6.72,4.92c-.6,0-1.09-.49-1.09-1.09s.48-1.09,1.09-1.09,1.09.48,1.09,1.09-.49,1.09-1.09,1.09ZM10,4.92c-.6,0-1.09-.49-1.09-1.09s.49-1.09,1.09-1.09,1.09.48,1.09,1.09-.48,1.09-1.09,1.09ZM13.29,4.92c-.6,0-1.09-.49-1.09-1.09s.48-1.09,1.09-1.09,1.08.48,1.08,1.09-.48,1.09-1.08,1.09Z"/>
  <path class="cls-1" d="M7.81,3.83c0,.6-.49,1.09-1.09,1.09s-1.09-.49-1.09-1.09.48-1.09,1.09-1.09,1.09.48,1.09,1.09Z"/>
  <path class="cls-1" d="M11.09,3.83c0,.6-.48,1.09-1.09,1.09s-1.09-.49-1.09-1.09.49-1.09,1.09-1.09,1.09.48,1.09,1.09Z"/>
  <path class="cls-1" d="M14.37,3.83c0,.6-.48,1.09-1.08,1.09s-1.09-.49-1.09-1.09.48-1.09,1.09-1.09,1.08.48,1.08,1.09Z"/>
  <g>
    <path class="cls-5" d="M7.81,3.83c0,.6-.49,1.09-1.09,1.09s-1.09-.49-1.09-1.09.48-1.09,1.09-1.09,1.09.48,1.09,1.09Z"/>
    <path class="cls-5" d="M11.09,3.83c0,.6-.48,1.09-1.09,1.09s-1.09-.49-1.09-1.09.49-1.09,1.09-1.09,1.09.48,1.09,1.09Z"/>
    <path class="cls-5" d="M14.37,3.83c0,.6-.48,1.09-1.08,1.09s-1.09-.49-1.09-1.09.48-1.09,1.09-1.09,1.08.48,1.08,1.09Z"/>
  </g>
  <line class="cls-4" x1="18.21" y1=".66" x2="18.21" y2="6.51"/>
  <rect class="cls-3" x="3.35" y="11.12" width="36.86" height="24.14"/>
  <g>
    <g>
      <path class="cls-1" d="M13.1,19.91l-6.3,4.17s-.08,0-.08-.04v-8.34s.04-.06.08-.04l6.3,4.17s.03.06,0,.08Z"/>
      <path class="cls-4" d="M19.43,24.13H6.89c-.05,0-.07-.07-.03-.09l6.27-4.15s.04-.01.06,0l6.27,4.15s.02.09-.03.09Z"/>
      <path class="cls-4" d="M19.46,15.69l-6.27,4.15s-.04.01-.06,0l-6.27-4.15s-.02-.09.03-.09h12.55c.05,0,.07.07.03.09Z"/>
      <path class="cls-1" d="M19.6,15.69v8.34s-.04.06-.08.04l-6.3-4.17s-.03-.06,0-.08l6.3-4.17s.08,0,.08.04Z"/>
      <line class="cls-2" x1="6.72" y1="26.43" x2="19.75" y2="26.43"/>
      <line class="cls-2" x1="6.72" y1="28.15" x2="19.75" y2="28.15"/>
      <line class="cls-2" x1="6.72" y1="29.86" x2="19.75" y2="29.86"/>
      <line class="cls-2" x1="6.72" y1="31.58" x2="19.75" y2="31.58"/>
    </g>
    <g>
      <path class="cls-1" d="M30.18,19.91l-6.3,4.17s-.08,0-.08-.04v-8.34s.04-.06.08-.04l6.3,4.17s.03.06,0,.08Z"/>
      <path class="cls-4" d="M36.52,24.13h-12.55c-.05,0-.07-.07-.03-.09l6.27-4.15s.04-.01.06,0l6.27,4.15s.02.09-.03.09Z"/>
      <path class="cls-4" d="M36.54,15.69l-6.27,4.15s-.04.01-.06,0l-6.27-4.15s-.02-.09.03-.09h12.55c.05,0,.07.07.03.09Z"/>
      <path class="cls-1" d="M36.68,15.69v8.34s-.04.06-.08.04l-6.3-4.17s-.03-.06,0-.08l6.3-4.17s.08,0,.08.04Z"/>
      <line class="cls-2" x1="23.8" y1="26.43" x2="36.84" y2="26.43"/>
      <line class="cls-2" x1="23.8" y1="28.15" x2="36.84" y2="28.15"/>
      <line class="cls-2" x1="23.8" y1="29.86" x2="36.84" y2="29.86"/>
      <line class="cls-2" x1="23.8" y1="31.58" x2="36.84" y2="31.58"/>
    </g>
  </g>
</svg>