<svg id="Layer_1" data-name="Layer 1" xmlns="http://www.w3.org/2000/svg" viewBox="0 0 178.31 29.83">
  <defs>
    <style>
      .cls-1 {
        fill: #6d6d6d;
      }

      .cls-1, .cls-2, .cls-3, .cls-4 {
        stroke-width: 0px;
      }

      .cls-2 {
        fill: #00ce60;
      }

      .cls-3 {
        fill: #424242;
      }

      .cls-4 {
        fill: #2e58bf;
      }
    </style>
  </defs>
  <path class="cls-3" d="M50.87,7.75h-6.54v15.69h6.54c4.61,0,8.09-3.37,8.09-7.84s-3.48-7.85-8.09-7.85ZM47.92,10.93h2.86c2.62,0,4.51,1.97,4.51,4.67s-1.9,4.66-4.51,4.66h-2.86s0-9.33,0-9.33Z"/>
  <polygon class="cls-3" points="61.93 23.43 73.43 23.43 73.43 23.13 73.43 20.54 73.43 20.24 65.53 20.24 65.53 17.01 73.43 17.01 73.43 16.72 73.43 14.11 73.43 13.82 65.53 13.82 65.53 10.93 73.43 10.93 73.43 10.64 73.43 8.04 73.43 7.74 61.93 7.74 61.93 23.43"/>
  <path class="cls-3" d="M82.57,13.98l-.18-.06c-.26-.09-.51-.18-.74-.25-1.53-.52-2.06-.73-2.06-1.52,0-.85.98-1.31,1.9-1.31,1.54,0,2.53,1.12,3.09,2.07l.17.28,2.79-1.99-.13-.24c-1.22-2.15-3.41-3.43-5.84-3.43-2.74,0-5.64,1.62-5.64,4.63,0,3.28,2.91,4.19,5.48,5,1.68.53,2.71,1.02,2.71,1.82s-1.01,1.38-2.29,1.38c-1.58,0-2.9-.84-3.61-2.29l-.15-.32-2.69,1.95.1.22c1,2.28,3.48,3.74,6.33,3.74s5.98-1.62,5.98-4.71-2.41-3.98-5.21-4.96h0Z"/>
  <polygon class="cls-3" points="104.95 7.74 100.28 7.74 94.37 14.12 94.37 7.74 90.77 7.74 90.77 23.43 94.37 23.43 94.37 18.68 94.37 16.65 100.8 23.43 105.17 23.43 97.64 15.39 104.95 7.74"/>
  <polygon class="cls-3" points="110.46 7.74 106.86 7.74 106.86 23.43 118.58 23.43 118.58 20.24 110.46 20.24 110.46 7.74"/>
  <path class="cls-3" d="M127.18,7.52c-4.75,0-8.2,3.41-8.2,8.1s3.45,8.03,8.2,8.03,8.21-3.38,8.21-8.03-3.45-8.1-8.21-8.1ZM127.19,20.26c-2.67,0-4.53-1.91-4.53-4.66s1.86-4.69,4.53-4.69,4.53,1.93,4.53,4.69-1.86,4.66-4.53,4.66Z"/>
  <path class="cls-3" d="M153.07,14.61h-8.17v3.19h4.47c-.42,1.26-1.62,2.48-3.88,2.48-2.62,0-4.45-1.93-4.45-4.69s1.8-4.69,4.37-4.69c1.61,0,2.99.8,4,2.32l.17.26,2.85-2.04-.17-.24c-1.61-2.34-4.11-3.68-6.86-3.68-4.58,0-8.04,3.47-8.04,8.06s3.57,8.07,8.12,8.07c5.03,0,7.65-3.79,7.65-7.53,0-.5-.02-.91-.06-1.25l-.03-.26s0,0,0,0Z"/>
  <rect class="cls-3" x="156" y="7.58" width="3.6" height="15.85"/>
  <path class="cls-3" d="M174.14,17.51c-.65,1.69-2.19,2.75-4.18,2.75-2.67,0-4.53-1.91-4.53-4.66s1.86-4.69,4.53-4.69c1.98,0,3.52,1.07,4.17,2.74h3.81c-.82-3.65-3.93-6.14-8-6.14-4.75,0-8.2,3.41-8.2,8.1s3.45,8.03,8.2,8.03c4.09,0,7.21-2.49,8.01-6.14h-3.81Z"/>
  <polygon class="cls-2" points="16.3 29.83 4.71 29.83 2.64 25.94 0 21 0 12.18 6.88 12.18 9.95 17.94 5.76 17.94 5.76 24.07 13.23 24.07 16.3 29.83"/>
  <path class="cls-4" d="M32.74,15.58c0,7.86-6.39,14.25-14.25,14.25h-.76l-3.07-5.76h3.83c4.68,0,8.49-3.81,8.49-8.49s-3.81-8.48-8.49-8.48h-7.56L7.9,1.41v-.08h10.59c7.86,0,14.25,6.39,14.25,14.24Z"/>
  <circle class="cls-3" cx="2.83" cy="7.04" r="2.83"/>
  <g>
    <path class="cls-1" d="M171.39.73h-1.17v-.73h3.22v.73h-1.17v3.58h-.88V.73Z"/>
    <path class="cls-1" d="M177.46,2.7c0-.73.01-1.61.03-2.09h-.03c-.19.89-.63,2.48-1.01,3.7h-.76c-.28-1.03-.73-2.84-.9-3.71h-.03c.04.5.06,1.44.06,2.18v1.53h-.81V0h1.31c.31,1.01.69,2.51.81,3.16h0c.09-.56.59-2.14.91-3.16h1.26v4.31h-.85v-1.61Z"/>
  </g>
</svg>